<?xml version="1.0" encoding="utf-8"?><!DOCTYPE svg PUBLIC "-//W3C//DTD SVG 1.1//EN" "http://www.w3.org/Graphics/SVG/1.1/DTD/svg11.dtd"><svg version="1.1" xmlns="http://www.w3.org/2000/svg" xmlns:xlink="http://www.w3.org/1999/xlink" width="24" height="24" viewBox="0 0 24 24" data-tags="home-outline"><g fill="#444" transform="scale(0.0234375 0.0234375)"><path d="M949.845 446.635c-144.64-121.771-407.296-348.629-409.899-350.933l-27.947-24.021-27.819 24.021c-2.645 2.261-265.429 229.035-412.16 351.915-18.688 16.811-29.355 40.32-29.355 64.384 0 47.104 38.229 85.333 85.333 85.333h42.667v256c0 47.104 38.229 85.333 85.333 85.333h128 384c47.104 0 85.333-38.229 85.333-85.333v-256h42.667c47.104 0 85.333-38.229 85.333-85.333 0-25.515-11.733-49.536-31.488-65.365zM597.333 853.333h-170.667v-213.333h170.667v213.333zM768 512l0.085 341.333c-0.085 0-128.085 0-128.085 0v-256h-256v256h-128v-341.333h-128.043c117.973-98.645 312.107-265.685 384.043-327.68 71.936 61.995 265.984 228.992 384 327.723 0-0-128-0-128-0.043z" /></g></svg>